{
  "accessors": [
    {
      "bufferView": 2,
      "componentType": 5126,
      "count": 8796,
      "max": [
        2677.521484375,
        300.54702758789062,
        178.08071899414062
      ],
      "min": [
        -5894.20166015625,
        -4672.82568359375,
        -2.6232380867004395
      ],
      "type": "VEC3"
    },
    {
      "bufferView": 2,
      "byteOffset": 105552,
      "componentType": 5126,
      "count": 8796,
      "max": [
        1,
        1,
        1
      ],
      "min": [
        -1,
        -1,
        -1
      ],
      "type": "VEC3"
    },
    {
      "bufferView": 1,
      "componentType": 5126,
      "count": 8796,
      "max": [
        0.65625,
        1
      ],
      "min": [
        0.34375,
        0
      ],
      "type": "VEC2"
    },
    {
      "bufferView": 0,
      "componentType": 5125,
      "count": 16896,
      "max": [
        8795
      ],
      "min": [
        0
      ],
      "type": "SCALAR"
    },
    {
      "bufferView": 2,
      "byteOffset": 211104,
      "componentType": 5126,
      "count": 641,
      "max": [
        1789.424560546875,
        2284.49267578125,
        175.16012573242188
      ],
      "min": [
        -2330.4619140625,
        -898.532470703125,
        -5.9851841926574707
      ],
      "type": "VEC3"
    },
    {
      "bufferView": 2,
      "byteOffset": 218796,
      "componentType": 5126,
      "count": 641,
      "max": [
        1,
        1,
        1
      ],
      "min": [
        -1,
        -1,
        -1
      ],
      "type": "VEC3"
    },
    {
      "bufferView": 1,
      "byteOffset": 70368,
      "componentType": 5126,
      "count": 641,
      "max": [
        0.96661698818206787,
        0.99739497900009155
      ],
      "min": [
        0.0019290000200271606,
        0.0019920000340789557
      ],
      "type": "VEC2"
    },
    {
      "bufferView": 0,
      "byteOffset": 67584,
      "componentType": 5125,
      "count": 1440,
      "max": [
        640
      ],
      "min": [
        0
      ],
      "type": "SCALAR"
    },
    {
      "bufferView": 2,
      "byteOffset": 226488,
      "componentType": 5126,
      "count": 8663,
      "max": [
        2497.47900390625,
        -3494.504150390625,
        1440.150146484375
      ],
      "min": [
        -5716.955078125,
        -5002.50439453125,
        0.1502079963684082
      ],
      "type": "VEC3"
    },
    {
      "bufferView": 2,
      "byteOffset": 330444,
      "componentType": 5126,
      "count": 8663,
      "max": [
        1,
        1,
        1
      ],
      "min": [
        -1,
        -1,
        -1
      ],
      "type": "VEC3"
    },
    {
      "bufferView": 1,
      "byteOffset": 75496,
      "componentType": 5126,
      "count": 8663,
      "max": [
        1.0156569480895996,
        1.0006580352783203
      ],
      "min": [
        0.0021599999163299799,
        0.0044680000282824039
      ],
      "type": "VEC2"
    },
    {
      "bufferView": 0,
      "byteOffset": 73344,
      "componentType": 5125,
      "count": 21612,
      "max": [
        8662
      ],
      "min": [
        0
      ],
      "type": "SCALAR"
    },
    {
      "bufferView": 2,
      "byteOffset": 434400,
      "componentType": 5126,
      "count": 287,
      "max": [
        -495.94830322265625,
        -2101.49755859375,
        450.4814453125
      ],
      "min": [
        -1195.9482421875,
        -3497.905029296875,
        0.48146098852157593
      ],
      "type": "VEC3"
    },
    {
      "bufferView": 2,
      "byteOffset": 437844,
      "componentType": 5126,
      "count": 287,
      "max": [
        1,
        1,
        1
      ],
      "min": [
        -1,
        -1,
        -1
      ],
      "type": "VEC3"
    },
    {
      "bufferView": 1,
      "byteOffset": 144800,
      "componentType": 5126,
      "count": 287,
      "max": [
        0.99184900522232056,
        0.99840599298477173
      ],
      "min": [
        0.082143999636173248,
        0.0023900000378489494
      ],
      "type": "VEC2"
    },
    {
      "bufferView": 0,
      "byteOffset": 159792,
      "componentType": 5125,
      "count": 576,
      "max": [
        286
      ],
      "min": [
        0
      ],
      "type": "SCALAR"
    },
    {
      "bufferView": 2,
      "byteOffset": 441288,
      "componentType": 5126,
      "count": 224,
      "max": [
        2683.673583984375,
        -321.44647216796875,
        16.165664672851562
      ],
      "min": [
        -5900.97900390625,
        -4680.6689453125,
        -0.15875199437141418
      ],
      "type": "VEC3"
    },
    {
      "bufferView": 2,
      "byteOffset": 443976,
      "componentType": 5126,
      "count": 224,
      "max": [
        1,
        1,
        1
      ],
      "min": [
        -1,
        -1,
        -0.99999678134918213
      ],
      "type": "VEC3"
    },
    {
      "bufferView": 1,
      "byteOffset": 147096,
      "componentType": 5126,
      "count": 224,
      "max": [
        0.875,
        0.5
      ],
      "min": [
        0.125,
        0
      ],
      "type": "VEC2"
    },
    {
      "bufferView": 0,
      "byteOffset": 162096,
      "componentType": 5125,
      "count": 384,
      "max": [
        223
      ],
      "min": [
        0
      ],
      "type": "SCALAR"
    },
    {
      "bufferView": 2,
      "byteOffset": 446664,
      "componentType": 5126,
      "count": 6009,
      "max": [
        1601.10888671875,
        2101.59423828125,
        1079.380859375
      ],
      "min": [
        -1706.89111328125,
        -2106.40576171875,
        -0.61926299333572388
      ],
      "type": "VEC3"
    },
    {
      "bufferView": 2,
      "byteOffset": 518772,
      "componentType": 5126,
      "count": 6009,
      "max": [
        1,
        1,
        1
      ],
      "min": [
        -1,
        -1,
        -1
      ],
      "type": "VEC3"
    },
    {
      "bufferView": 1,
      "byteOffset": 148888,
      "componentType": 5126,
      "count": 6009,
      "max": [
        1.0017759799957275,
        0.99912101030349731
      ],
      "min": [
        0.0067170001566410065,
        -0.0016159999649971724
      ],
      "type": "VEC2"
    },
    {
      "bufferView": 0,
      "byteOffset": 163632,
      "componentType": 5125,
      "count": 13542,
      "max": [
        6008
      ],
      "min": [
        0
      ],
      "type": "SCALAR"
    },
    {
      "bufferView": 2,
      "byteOffset": 590880,
      "componentType": 5126,
      "count": 264,
      "max": [
        1388.798583984375,
        1182.4730224609375,
        1511.4359130859375
      ],
      "min": [
        -3861.094482421875,
        -4025.779541015625,
        1120.477783203125
      ],
      "type": "VEC3"
    },
    {
      "bufferView": 2,
      "byteOffset": 594048,
      "componentType": 5126,
      "count": 264,
      "max": [
        1,
        1,
        1
      ],
      "min": [
        -1,
        -1,
        -1
      ],
      "type": "VEC3"
    },
    {
      "bufferView": 1,
      "byteOffset": 196960,
      "componentType": 5126,
      "count": 264,
      "max": [
        0.91892397403717041,
        0.99800801277160645
      ],
      "min": [
        0.0018339999951422215,
        0.0019920000340789557
      ],
      "type": "VEC2"
    },
    {
      "bufferView": 0,
      "byteOffset": 217800,
      "componentType": 5125,
      "count": 396,
      "max": [
        263
      ],
      "min": [
        0
      ],
      "type": "SCALAR"
    },
    {
      "bufferView": 2,
      "byteOffset": 597216,
      "componentType": 5126,
      "count": 1320,
      "max": [
        1396.3553466796875,
        1189.4901123046875,
        1515.4571533203125
      ],
      "min": [
        -3868.6513671875,
        -4032.796630859375,
        979.0081787109375
      ],
      "type": "VEC3"
    },
    {
      "bufferView": 2,
      "byteOffset": 613056,
      "componentType": 5126,
      "count": 1320,
      "max": [
        1,
        1,
        1
      ],
      "min": [
        -1,
        -1,
        -1
      ],
      "type": "VEC3"
    },
    {
      "bufferView": 1,
      "byteOffset": 199072,
      "componentType": 5126,
      "count": 1320,
      "max": [
        0.875,
        1
      ],
      "min": [
        0.125,
        0
      ],
      "type": "VEC2"
    },
    {
      "bufferView": 0,
      "byteOffset": 219384,
      "componentType": 5125,
      "count": 1980,
      "max": [
        1319
      ],
      "min": [
        0
      ],
      "type": "SCALAR"
    },
    {
      "bufferView": 2,
      "byteOffset": 628896,
      "componentType": 5126,
      "count": 1552,
      "max": [
        -1698.016845703125,
        912.88763427734375,
        600.10546875
      ],
      "min": [
        -2374.118408203125,
        -914.1171875,
        0.1054380014538765
      ],
      "type": "VEC3"
    },
    {
      "bufferView": 2,
      "byteOffset": 647520,
      "componentType": 5126,
      "count": 1552,
      "max": [
        1,
        1,
        1
      ],
      "min": [
        -1,
        -1,
        -1
      ],
      "type": "VEC3"
    },
    {
      "bufferView": 1,
      "byteOffset": 209632,
      "componentType": 5126,
      "count": 1552,
      "max": [
        0.88753402233123779,
        0.96665799617767334
      ],
      "min": [
        0.0013729999773204327,
        0.0018619999755173922
      ],
      "type": "VEC2"
    },
    {
      "bufferView": 0,
      "byteOffset": 227304,
      "componentType": 5125,
      "count": 4332,
      "max": [
        1551
      ],
      "min": [
        0
      ],
      "type": "SCALAR"
    }
  ],
  "asset": {
    "extras": {
      "author": "swjeta (https://sketchfab.com/swjeta)",
      "license": "CC-BY-4.0 (http://creativecommons.org/licenses/by/4.0/)",
      "source": "https://sketchfab.com/3d-models/school-building-d34ac09a3ca544df999485c4b311abcc",
      "title": "school building"
    },
    "generator": "Sketchfab-9.43.0",
    "version": "2.0"
  },
  "bufferViews": [
    {
      "buffer": 0,
      "byteLength": 244632,
      "byteOffset": 0,
      "name": "floatBufferViews",
      "target": 34963
    },
    {
      "buffer": 0,
      "byteLength": 222048,
      "byteOffset": 244632,
      "byteStride": 8,
      "name": "floatBufferViews",
      "target": 34962
    },
    {
      "buffer": 0,
      "byteLength": 666144,
      "byteOffset": 466680,
      "byteStride": 12,
      "name": "floatBufferViews",
      "target": 34962
    }
  ],
  "buffers": [
    {
      "byteLength": 1132824,
      "uri": "scene.bin"
    }
  ],
  "images": [
    {
      "uri": "textures/lambert25SG_baseColor.png"
    },
    {
      "uri": "textures/lambert35SG_baseColor.png"
    },
    {
      "uri": "textures/lambert38SG_baseColor.png"
    },
    {
      "uri": "textures/lambert44SG_baseColor.png"
    },
    {
      "uri": "textures/lambert48SG_baseColor.png"
    },
    {
      "uri": "textures/lambert51SG_baseColor.png"
    }
  ],
  "materials": [
    {
      "doubleSided": true,
      "emissiveFactor": [
        0,
        0,
        0
      ],
      "name": "lambert21SG",
      "pbrMetallicRoughness": {
        "baseColorFactor": [
          0.23000000000000001,
          0.28000000000000003,
          0.27000000000000002,
          1
        ],
        "metallicFactor": 0,
        "roughnessFactor": 1
      }
    },
    {
      "doubleSided": true,
      "emissiveFactor": [
        0,
        0,
        0
      ],
      "name": "lambert25SG",
      "pbrMetallicRoughness": {
        "baseColorFactor": [
          1,
          1,
          1,
          1
        ],
        "baseColorTexture": {
          "index": 0,
          "texCoord": 0
        },
        "metallicFactor": 0,
        "roughnessFactor": 1
      }
    },
    {
      "doubleSided": true,
      "emissiveFactor": [
        0,
        0,
        0
      ],
      "name": "lambert35SG",
      "pbrMetallicRoughness": {
        "baseColorFactor": [
          1,
          1,
          1,
          1
        ],
        "baseColorTexture": {
          "index": 1,
          "texCoord": 0
        },
        "metallicFactor": 0,
        "roughnessFactor": 1
      }
    },
    {
      "doubleSided": true,
      "emissiveFactor": [
        0,
        0,
        0
      ],
      "name": "lambert38SG",
      "pbrMetallicRoughness": {
        "baseColorFactor": [
          1,
          1,
          1,
          1
        ],
        "baseColorTexture": {
          "index": 2,
          "texCoord": 0
        },
        "metallicFactor": 0,
        "roughnessFactor": 1
      }
    },
    {
      "doubleSided": true,
      "emissiveFactor": [
        0,
        0,
        0
      ],
      "name": "lambert42SG",
      "pbrMetallicRoughness": {
        "baseColorFactor": [
          1,
          1,
          1,
          1
        ],
        "metallicFactor": 0,
        "roughnessFactor": 1
      }
    },
    {
      "doubleSided": true,
      "emissiveFactor": [
        0,
        0,
        0
      ],
      "name": "lambert44SG",
      "pbrMetallicRoughness": {
        "baseColorFactor": [
          1,
          1,
          1,
          1
        ],
        "baseColorTexture": {
          "index": 3,
          "texCoord": 0
        },
        "metallicFactor": 0,
        "roughnessFactor": 1
      }
    },
    {
      "doubleSided": true,
      "emissiveFactor": [
        0,
        0,
        0
      ],
      "name": "lambert47SG",
      "pbrMetallicRoughness": {
        "baseColorFactor": [
          1,
          1,
          1,
          1
        ],
        "metallicFactor": 0,
        "roughnessFactor": 1
      }
    },
    {
      "doubleSided": true,
      "emissiveFactor": [
        0,
        0,
        0
      ],
      "name": "lambert48SG",
      "pbrMetallicRoughness": {
        "baseColorFactor": [
          1,
          1,
          1,
          1
        ],
        "baseColorTexture": {
          "index": 4,
          "texCoord": 0
        },
        "metallicFactor": 0,
        "roughnessFactor": 1
      }
    },
    {
      "doubleSided": true,
      "emissiveFactor": [
        0,
        0,
        0
      ],
      "name": "lambert51SG",
      "pbrMetallicRoughness": {
        "baseColorFactor": [
          1,
          1,
          1,
          1
        ],
        "baseColorTexture": {
          "index": 5,
          "texCoord": 0
        },
        "metallicFactor": 0,
        "roughnessFactor": 1
      }
    }
  ],
  "meshes": [
    {
      "primitives": [
        {
          "attributes": {
            "NORMAL": 1,
            "POSITION": 0,
            "TEXCOORD_0": 2
          },
          "indices": 3,
          "material": 0,
          "mode": 4
        }
      ]
    },
    {
      "primitives": [
        {
          "attributes": {
            "NORMAL": 5,
            "POSITION": 4,
            "TEXCOORD_0": 6
          },
          "indices": 7,
          "material": 1,
          "mode": 4
        }
      ]
    },
    {
      "primitives": [
        {
          "attributes": {
            "NORMAL": 9,
            "POSITION": 8,
            "TEXCOORD_0": 10
          },
          "indices": 11,
          "material": 2,
          "mode": 4
        }
      ]
    },
    {
      "primitives": [
        {
          "attributes": {
            "NORMAL": 13,
            "POSITION": 12,
            "TEXCOORD_0": 14
          },
          "indices": 15,
          "material": 3,
          "mode": 4
        }
      ]
    },
    {
      "primitives": [
        {
          "attributes": {
            "NORMAL": 17,
            "POSITION": 16,
            "TEXCOORD_0": 18
          },
          "indices": 19,
          "material": 4,
          "mode": 4
        }
      ]
    },
    {
      "primitives": [
        {
          "attributes": {
            "NORMAL": 21,
            "POSITION": 20,
            "TEXCOORD_0": 22
          },
          "indices": 23,
          "material": 5,
          "mode": 4
        }
      ]
    },
    {
      "primitives": [
        {
          "attributes": {
            "NORMAL": 25,
            "POSITION": 24,
            "TEXCOORD_0": 26
          },
          "indices": 27,
          "material": 6,
          "mode": 4
        }
      ]
    },
    {
      "primitives": [
        {
          "attributes": {
            "NORMAL": 29,
            "POSITION": 28,
            "TEXCOORD_0": 30
          },
          "indices": 31,
          "material": 7,
          "mode": 4
        }
      ]
    },
    {
      "primitives": [
        {
          "attributes": {
            "NORMAL": 33,
            "POSITION": 32,
            "TEXCOORD_0": 34
          },
          "indices": 35,
          "material": 8,
          "mode": 4
        }
      ]
    }
  ],
  "nodes": [
    {
      "children": [
        1
      ],
      "name": "RootNode (gltf orientation matrix)",
      "rotation": [
        -0.70710678118654746,
        -0,
        -0,
        0.70710678118654757
      ]
    },
    {
      "children": [
        2
      ],
      "matrix": [
        0.00030274823075160384,
        0,
        0,
        0,
        0,
        0.00030274823075160384,
        0,
        0,
        0,
        0,
        0.00030274823075160384,
        0,
        0,
        0,
        0,
        1
      ],
      "name": "RootNode (model correction matrix)"
    },
    {
      "children": [
        3,
        4,
        5,
        6,
        7,
        8,
        9,
        10,
        11,
        12,
        13
      ],
      "name": "schol_19.obj.cleaner.materialmerger.gles"
    },
    {
      "mesh": 0,
      "name": ""
    },
    {
      "mesh": 1,
      "name": ""
    },
    {
      "name": ""
    },
    {
      "mesh": 2,
      "name": ""
    },
    {
      "mesh": 3,
      "name": ""
    },
    {
      "mesh": 4,
      "name": ""
    },
    {
      "name": ""
    },
    {
      "mesh": 5,
      "name": ""
    },
    {
      "mesh": 6,
      "name": ""
    },
    {
      "mesh": 7,
      "name": ""
    },
    {
      "mesh": 8,
      "name": ""
    }
  ],
  "samplers": [
    {
      "magFilter": 9729,
      "minFilter": 9987,
      "wrapS": 10497,
      "wrapT": 10497
    }
  ],
  "scene": 0,
  "scenes": [
    {
      "name": "OSG_Scene",
      "nodes": [
        0
      ]
    }
  ],
  "textures": [
    {
      "sampler": 0,
      "source": 0
    },
    {
      "sampler": 0,
      "source": 1
    },
    {
      "sampler": 0,
      "source": 2
    },
    {
      "sampler": 0,
      "source": 3
    },
    {
      "sampler": 0,
      "source": 4
    },
    {
      "sampler": 0,
      "source": 5
    }
  ]
}

